<svg width="114" height="114" viewBox="0 0 114 114" fill="none" xmlns="http://www.w3.org/2000/svg">
<path d="M57 0C55.1555 0 53.6602 1.49536 53.6602 3.33984V16.6992C53.6602 18.5437 55.1555 20.0391 57 20.0391C77.3802 20.0391 93.9609 36.6196 93.9609 57C93.9609 77.3804 77.3802 93.9609 57 93.9609C36.6198 93.9609 20.0391 77.3804 20.0391 57C20.0391 55.1555 18.5437 53.6602 16.6992 53.6602H3.33984C1.49536 53.6602 0 55.1555 0 57C0 88.3836 25.6146 114 57 114C88.3836 114 114 88.3856 114 57C114 25.6164 88.3854 0 57 0Z" fill="url(#paint0_linear)"/>
<path d="M57 26.7188C55.1555 26.7188 53.6602 28.2141 53.6602 30.0586V43.418C53.6602 45.2625 55.1555 46.7578 57 46.7578C62.5519 46.7578 67.2422 51.4481 67.2422 57C67.2422 62.5519 62.5519 67.2422 57 67.2422C51.4481 67.2422 46.7578 62.5519 46.7578 57C46.7578 55.1555 45.2625 53.6602 43.418 53.6602H30.0586C28.2141 53.6602 26.7188 55.1555 26.7188 57C26.7188 73.6242 40.4399 87.2812 57 87.2812C73.6242 87.2812 87.2812 73.5601 87.2812 57C87.2812 40.3758 73.5601 26.7188 57 26.7188ZM16.6992 20.0391H43.6406C45.4851 20.0391 46.9805 18.5437 46.9805 16.6992C46.9805 14.8547 45.4851 13.3594 43.6406 13.3594H16.6992C14.8547 13.3594 13.3594 14.8547 13.3594 16.6992C13.3594 18.5437 14.8547 20.0391 16.6992 20.0391ZM3.33984 20.0391C5.18433 20.0391 6.67969 18.5437 6.67969 16.6992C6.67969 14.8547 5.18433 13.3594 3.33984 13.3594C1.49536 13.3594 0 14.8547 0 16.6992C0 18.5437 1.49536 20.0391 3.33984 20.0391ZM46.9805 30.0586C46.9805 28.2141 45.4851 26.7188 43.6406 26.7188H3.33984C1.49536 26.7188 0 28.2141 0 30.0586C0 31.9031 1.49536 33.3984 3.33984 33.3984H43.6406C45.4851 33.3984 46.9805 31.9031 46.9805 30.0586Z" fill="url(#paint1_linear)"/>
<defs>
<linearGradient id="paint0_linear" x1="57" y1="114" x2="57" y2="0" gradientUnits="userSpaceOnUse">
<stop stop-color="#5558FF"/>
<stop offset="1" stop-color="#00C0FF"/>
</linearGradient>
<linearGradient id="paint1_linear" x1="43.6406" y1="87.2812" x2="43.6406" y2="13.3594" gradientUnits="userSpaceOnUse">
<stop stop-color="#ADDCFF"/>
<stop offset="0.5028" stop-color="#EAF6FF"/>
<stop offset="1" stop-color="#EAF6FF"/>
</linearGradient>
</defs>
</svg>
