<svg width="21" height="21" viewBox="0 0 21 21" fill="none" xmlns="http://www.w3.org/2000/svg">
<path d="M20.0591 15.4402L17.1783 12.5477C16.1495 11.5147 14.4005 11.9279 13.9889 13.2708C13.6803 14.2006 12.6515 14.7171 11.7255 14.5105C9.66785 13.9939 6.89 11.308 6.37558 9.13868C6.06693 8.20891 6.68423 7.17587 7.61018 6.866C8.94766 6.45279 9.3592 4.69663 8.33036 3.6636L5.44963 0.771103C4.62657 0.0479789 3.39197 0.0479789 2.67178 0.771103L0.717001 2.73387C-1.23778 4.79993 0.922768 10.275 5.75828 15.1303C10.5938 19.9855 16.0466 22.2582 18.1043 20.1921L20.0591 18.2294C20.7793 17.4029 20.7793 16.1633 20.0591 15.4402Z" fill="white"/>
</svg>
