<svg width="183" height="183" viewBox="0 0 183 183" fill="none" xmlns="http://www.w3.org/2000/svg">
<circle cx="91.5" cy="91.5" r="91.5" fill="white"/>
<path fill-rule="evenodd" clip-rule="evenodd" d="M91.7814 28C113.75 28 131.556 45.8123 131.556 67.7814C131.556 82.6653 123.378 95.6426 111.272 102.463C110.329 102.992 109.772 103.77 109.772 104.87V122.147H73.7834V104.87C73.7834 103.713 73.2835 103.02 72.3049 102.471C60.1849 95.6499 52 82.6726 52 67.7816C52 45.8123 69.8123 28 91.7814 28V28Z" fill="#FFE07D"/>
<path fill-rule="evenodd" clip-rule="evenodd" d="M91.7814 28C113.75 28 131.556 45.8123 131.556 67.7814C131.556 82.6653 123.378 95.6426 111.272 102.463C110.329 102.992 109.772 103.77 109.772 104.87V122.147H102.216V104.87C102.216 103.77 102.766 102.992 103.709 102.463C115.822 95.6426 123.999 82.6653 123.999 67.7814C123.999 47.0837 108.194 30.0854 88.0034 28.1786C89.246 28.0642 90.503 28 91.7814 28V28Z" fill="#FFD064"/>
<path fill-rule="evenodd" clip-rule="evenodd" d="M109.072 133.024V139.709C109.072 142.38 106.887 144.566 104.216 144.566L91.3745 145.573L79.3472 144.566C76.669 144.566 74.4835 142.38 74.4835 139.709V133.024L91.6886 131.446L109.072 133.024Z" fill="#75CEF9"/>
<path fill-rule="evenodd" clip-rule="evenodd" d="M109.072 133.024V139.709C109.072 142.38 106.887 144.566 104.216 144.566H96.6524C99.3307 144.566 101.516 142.38 101.516 139.709V133.024H109.072Z" fill="#6BBEF6"/>
<path fill-rule="evenodd" clip-rule="evenodd" d="M81.2538 70.8595H102.309V122.147H81.2538V70.8595Z" fill="#FC7070"/>
<path fill-rule="evenodd" clip-rule="evenodd" d="M73.7834 120.89H109.772C113.122 120.89 115.865 123.625 115.865 126.975C115.865 130.324 113.122 133.06 109.772 133.06H73.7834C70.4339 133.06 67.6985 130.325 67.6985 126.975C67.6985 123.625 70.4339 120.89 73.7834 120.89ZM104.216 144.566C104.216 151.436 98.6448 157 91.7811 157C84.9106 157 79.3468 151.436 79.3468 144.566H104.216Z" fill="#365E7D"/>
<path fill-rule="evenodd" clip-rule="evenodd" d="M102.216 120.89H109.772C113.122 120.89 115.865 123.625 115.865 126.975C115.865 130.324 113.122 133.06 109.772 133.06H102.216C105.566 133.06 108.301 130.325 108.301 126.975C108.301 123.625 105.566 120.89 102.216 120.89ZM104.216 144.566C104.216 151.436 98.6448 157 91.7811 157C90.4599 157 89.1958 156.8 88.0031 156.414C93.0167 154.814 96.6521 150.115 96.6521 144.566H104.216Z" fill="#2B4D66"/>
<path fill-rule="evenodd" clip-rule="evenodd" d="M88.2888 70.8595H95.274V120.847H88.2888V70.8595Z" fill="#D15A63"/>
<path fill-rule="evenodd" clip-rule="evenodd" d="M92.5957 47.0408L97.0449 57.9466L102.309 70.8595H91.7814H81.2538L86.5178 57.9466L90.9673 47.0408H92.5957Z" fill="#FFF9DF"/>
<path fill-rule="evenodd" clip-rule="evenodd" d="M97.0449 57.9466L92.5957 47.0406C92.1956 46.0549 91.3886 46.0051 90.9673 47.0406L86.5178 57.9466H97.0449Z" fill="#FC7070"/>
</svg>
