<svg width="82" height="82" viewBox="0 0 82 82" fill="none" xmlns="http://www.w3.org/2000/svg">
<path d="M1.7119 15.2398C12.9661 24.7709 32.7137 41.5389 38.5177 46.7672C39.2969 47.4729 40.1326 47.8316 41.0002 47.8316C41.866 47.8316 42.7002 47.4762 43.4776 46.774C49.2866 41.5405 69.0342 24.7709 80.2886 15.2398C80.9893 14.6476 81.0961 13.6066 80.5288 12.8825C79.2174 11.2093 77.2623 10.25 75.1668 10.25H6.83354C4.73822 10.25 2.78287 11.2093 1.47167 12.8826C0.904395 13.6066 1.01122 14.6476 1.7119 15.2398Z" fill="black"/>
<path d="M81.0091 20.4049C80.4036 20.123 79.6912 20.2213 79.1873 20.6518C66.7067 31.2321 50.7779 44.7938 45.7663 49.3097C42.9534 51.8488 39.0496 51.8488 36.2302 49.3063C30.8884 44.4933 13.0008 29.2868 2.81266 20.6517C2.30545 20.2212 1.59147 20.1262 0.990887 20.4047C0.387098 20.6851 0 21.2891 0 21.9547V64.9166C0 68.6854 3.06459 71.75 6.83339 71.75H75.1668C78.9354 71.75 82 68.6854 82 64.9166V21.9547C82 21.2891 81.6129 20.6835 81.0091 20.4049Z" fill="black"/>
</svg>
