<svg width="21" height="16" viewBox="0 0 21 16" fill="none" xmlns="http://www.w3.org/2000/svg">
<path d="M0.429517 1.30608C3.25358 3.69775 8.20894 7.90544 9.66538 9.2174C9.8609 9.39447 10.0706 9.4845 10.2883 9.4845C10.5056 9.4845 10.7149 9.39532 10.91 9.21909C12.3677 7.90584 17.323 3.69775 20.1471 1.30608C20.323 1.15746 20.3498 0.896231 20.2074 0.714538C19.8784 0.294686 19.3877 0.0539551 18.8619 0.0539551H1.71471C1.18892 0.0539551 0.69826 0.294686 0.369234 0.714578C0.226886 0.896232 0.253692 1.15746 0.429517 1.30608Z" fill="white"/>
<path d="M20.328 2.60198C20.1761 2.53124 19.9973 2.55592 19.8709 2.66395C16.739 5.3189 12.7419 8.72201 11.4843 9.85521C10.7785 10.4924 9.79891 10.4924 9.09143 9.85437C7.75097 8.64661 3.26237 4.83077 0.705796 2.66391C0.578518 2.55588 0.399356 2.53205 0.248648 2.60194C0.0971363 2.67231 0 2.82386 0 2.99088V13.7715C0 14.7172 0.769013 15.4863 1.71474 15.4863H18.862C19.8076 15.4863 20.5767 14.7172 20.5767 13.7715V2.99088C20.5767 2.82386 20.4795 2.67191 20.328 2.60198Z" fill="white"/>
</svg>
