<svg width="183" height="183" viewBox="0 0 183 183" fill="none" xmlns="http://www.w3.org/2000/svg">
<circle cx="91.5" cy="91.5" r="91.5" fill="white"/>
<path d="M108.166 101.908V107.643H109.181V113.376H108.166V119.112H109.181V131.063H95.6536V96.1744H108.439C108.849 96.1744 109.181 96.5066 109.181 96.9166V101.908H108.166Z" fill="#DD7F66"/>
<path d="M108.166 101.908V107.643H109.181V113.376H108.166V119.112H109.181V131.063H103.447V96.1744H108.438C108.849 96.1744 109.181 96.5066 109.181 96.9166V101.908H108.166Z" fill="#D6694B"/>
<path d="M109.181 107.643H103.829C103.618 107.643 103.447 107.472 103.447 107.26V102.291C103.447 102.079 103.618 101.908 103.829 101.908H109.181V107.643Z" fill="#DCF5F8"/>
<path d="M109.181 119.112H103.829C103.618 119.112 103.447 118.941 103.447 118.729V113.759C103.447 113.548 103.618 113.377 103.829 113.377H109.181V119.112Z" fill="#DCF5F8"/>
<path d="M71.3325 96.1744V131.063H57.9531V119.112H59.0256V113.376H57.9531V107.643H59.0256V101.908H57.9531V96.9166C57.9531 96.5066 58.2853 96.1744 58.6953 96.1744H71.3325Z" fill="#DD7F66"/>
<path d="M63.6881 96.1738H71.3325V131.063H63.6881V96.1738Z" fill="#D6694B"/>
<path d="M57.9536 107.643H63.3057C63.5169 107.643 63.6879 107.472 63.6879 107.26V102.291C63.6879 102.079 63.5169 101.908 63.3057 101.908H57.9536V107.643Z" fill="#DCF5F8"/>
<path d="M57.9536 119.112H63.3057C63.5169 119.112 63.6879 118.941 63.6879 118.729V113.759C63.6879 113.548 63.5169 113.377 63.3057 113.377H57.9536V119.112Z" fill="#DCF5F8"/>
<path d="M121.957 67.1955C121.85 67.9502 121.596 69.0312 121.369 69.9095C121.157 70.73 120.418 71.3037 119.571 71.3037H116.976C116.129 71.3037 115.39 70.73 115.178 69.9095C114.951 69.0312 114.697 67.9504 114.59 67.1955C114.511 66.6332 114.173 66.1409 113.681 65.8576L111.284 64.4767C110.792 64.1936 110.197 64.1476 109.671 64.3598C108.962 64.6461 107.892 64.9681 107.013 65.2117C106.198 65.4379 105.333 65.0863 104.909 64.3537L103.613 62.1151C103.189 61.3818 103.317 60.4554 103.922 59.8627C104.572 59.2267 105.384 58.4654 105.987 57.9961C106.434 57.6473 106.692 57.1092 106.692 56.5416V53.7833C106.692 53.2157 106.434 52.6776 105.987 52.3288C105.384 51.8594 104.572 51.0981 103.922 50.4622C103.317 49.8695 103.189 48.9431 103.613 48.2098L104.909 45.9712C105.333 45.2387 106.198 44.8871 107.013 45.1132C107.892 45.3567 108.962 45.6788 109.671 45.9651C110.197 46.1774 110.792 46.1313 111.284 45.8482L113.681 44.4674C114.173 44.184 114.511 43.6916 114.59 43.1294C114.697 42.3748 114.951 41.2938 115.178 40.4154C115.39 39.5949 116.129 39.0212 116.976 39.0212H119.571C120.418 39.0212 121.157 39.5949 121.369 40.4154C121.596 41.2938 121.85 42.3746 121.957 43.1294C122.036 43.6918 122.374 44.184 122.866 44.4674L125.264 45.8482C125.755 46.1313 126.35 46.1774 126.876 45.9651C127.586 45.6788 128.656 45.3569 129.534 45.1132C130.349 44.8871 131.214 45.2387 131.638 45.9712L132.934 48.2098C133.358 48.9431 133.23 49.8695 132.625 50.4622C131.975 51.0982 131.163 51.8595 130.56 52.3288C130.113 52.6776 129.855 53.2157 129.855 53.7833V56.5414C129.855 57.109 130.113 57.6471 130.56 57.9959C131.163 58.4654 131.975 59.2267 132.625 59.8625C133.23 60.4552 133.358 61.3816 132.934 62.1149L131.638 64.3535C131.214 65.0861 130.349 65.4375 129.534 65.2115C128.656 64.9681 127.586 64.6459 126.876 64.3596C126.35 64.1474 125.755 64.1934 125.264 64.4765L122.866 65.8574C122.374 66.1409 122.036 66.6332 121.957 67.1955ZM124.662 55.1623C124.662 51.6425 121.802 48.7891 118.273 48.7891C114.745 48.7891 111.885 51.6425 111.885 55.1623C111.885 58.6821 114.745 61.5354 118.273 61.5354C121.802 61.5354 124.662 58.6821 124.662 55.1623Z" fill="#A8D3D8"/>
<path d="M70.8141 39C70.0454 39 69.4225 39.6231 69.4225 40.3916V56.1366C69.4225 56.9051 70.0454 57.5282 70.8141 57.5282C71.5828 57.5282 72.2057 56.9051 72.2057 56.1366V40.3916C72.2057 39.6231 71.5828 39 70.8141 39Z" fill="#7A6D79"/>
<path d="M85.0966 64.7303H69.4225V53.1886C69.4225 52.6915 69.8895 52.3265 70.3719 52.4468L84.5167 55.9711C84.8574 56.0558 85.0964 56.3618 85.0964 56.7129V64.7303H85.0966Z" fill="#A8D3D8"/>
<path d="M79.3621 54.6866V64.7303H85.0964V56.7128C85.0964 56.3618 84.8572 56.0558 84.5167 55.971L79.3621 54.6866Z" fill="#8EBAC5"/>
<path d="M90.4487 70.4971H69.4225V62.5319H89.684C90.1063 62.5319 90.4487 62.8743 90.4487 63.2966V70.4971Z" fill="#918291"/>
<path d="M84.7142 62.5319V70.4971H90.4486V63.2966C90.4486 62.8743 90.1062 62.5319 89.6839 62.5319H84.7142Z" fill="#7A6D79"/>
<path d="M97.7122 69.0308V131.063H69.4219V114.907H70.9526V109.172H69.4219V103.437H70.9526V97.7033H69.4219V91.9681H70.9526V86.2347H69.4219V80.4994H70.9526V74.766H69.4219V68.2663H96.9478C97.3708 68.2663 97.7122 68.6096 97.7122 69.0308Z" fill="#A8D3D8"/>
<path d="M91.9778 68.2665V131.063H97.7121V69.0311C97.7121 68.6088 97.3698 68.2665 96.9475 68.2665H91.9778Z" fill="#8EBAC5"/>
<path d="M89.3018 80.4998H69.4225V74.7654H89.3018C89.5129 74.7654 89.684 74.9365 89.684 75.1477V80.1175C89.684 80.3287 89.5129 80.4998 89.3018 80.4998Z" fill="#DCF5F8"/>
<path d="M89.3018 91.9686H69.4225V86.2343H89.3018C89.5129 86.2343 89.684 86.4054 89.684 86.6165V91.5864C89.684 91.7976 89.5129 91.9686 89.3018 91.9686Z" fill="#DCF5F8"/>
<path d="M89.3018 103.437H69.4225V97.7031H89.3018C89.5129 97.7031 89.684 97.8742 89.684 98.0854V103.055C89.684 103.266 89.5129 103.437 89.3018 103.437Z" fill="#DCF5F8"/>
<path d="M89.3018 114.906H69.4225V109.172H89.3018C89.5129 109.172 89.684 109.343 89.684 109.554V114.524C89.684 114.735 89.5129 114.906 89.3018 114.906Z" fill="#DCF5F8"/>
<path d="M91.9777 131.063H75.157V121.401C75.157 121.192 75.3262 121.023 75.5349 121.023H91.5998C91.8085 121.023 91.9777 121.192 91.9777 121.401V131.063Z" fill="#685E68"/>
<path d="M134.413 134H48.5875C46.0538 134 44 131.946 44 129.412C44 128.779 44.5134 128.266 45.1469 128.266H137.853C138.487 128.266 139 128.779 139 129.412C139 131.946 136.946 134 134.413 134Z" fill="#CBC4CC"/>
<path d="M137.853 128.266H132.119C132.752 128.266 133.266 128.779 133.266 129.412C133.266 131.946 131.212 134 128.678 134H134.413C136.946 134 139 131.946 139 129.412C139 128.779 138.487 128.266 137.853 128.266Z" fill="#B5ADB6"/>
</svg>
