<svg width="114" height="112" viewBox="0 0 114 112" fill="none" xmlns="http://www.w3.org/2000/svg">
<path d="M42.4703 23.0728H29.16C28.6164 23.0728 28.1755 23.4847 28.1755 23.9926V33.7419C28.1755 34.2498 28.6164 34.6617 29.16 34.6617H42.4703C43.0139 34.6617 43.4547 34.2498 43.4547 33.7419V23.9926C43.455 23.4847 43.0141 23.0728 42.4703 23.0728Z" fill="#CCDFED"/>
<path d="M71.0801 96.2498H23.8798C23.2767 96.2498 22.7876 95.7929 22.7876 95.2293V30.7254C22.7876 30.1619 23.2767 29.705 23.8798 29.705H71.0801C71.6832 29.705 72.1723 30.1619 72.1723 30.7254V95.2293C72.1723 95.7931 71.6834 96.2498 71.0801 96.2498Z" fill="#E1EFFB"/>
<path d="M64.0243 70.6299H28.9292C28.7613 70.6299 28.6251 70.5028 28.6251 70.3457V65.3727C28.6251 65.2158 28.7611 65.0885 28.9292 65.0885H64.0245C64.1924 65.0885 64.3286 65.2156 64.3286 65.3727V70.3457C64.3284 70.5028 64.1921 70.6299 64.0243 70.6299Z" fill="#21D8DE"/>
<path d="M64.0243 57.1606H28.9292C28.7613 57.1606 28.6251 57.0335 28.6251 56.8765V51.9034C28.6251 51.7466 28.7611 51.6193 28.9292 51.6193H64.0245C64.1924 51.6193 64.3286 51.7464 64.3286 51.9034V56.8765C64.3284 57.0335 64.1921 57.1606 64.0243 57.1606Z" fill="#21D8DE"/>
<path d="M64.0243 43.6914H28.9292C28.7613 43.6914 28.6251 43.5643 28.6251 43.4073V38.4344C28.6251 38.2776 28.7611 38.1503 28.9292 38.1503H64.0245C64.1924 38.1503 64.3286 38.2774 64.3286 38.4344V43.4075C64.3284 43.5643 64.1921 43.6914 64.0243 43.6914Z" fill="#21D8DE"/>
<path d="M64.0243 84.0996H28.9292C28.7613 84.0996 28.6251 83.9725 28.6251 83.8155V78.8424C28.6251 78.6855 28.7611 78.5582 28.9292 78.5582H64.0245C64.1924 78.5582 64.3286 78.6853 64.3286 78.8424V83.8155C64.3284 83.9723 64.1921 84.0996 64.0243 84.0996Z" fill="#61AFF6"/>
<path d="M97.7434 1.48596H50.5992V96.2507H97.7434V1.48596Z" fill="#CCDFED"/>
<path d="M97.7457 1.48596H86.9365V96.2507H97.7457V1.48596Z" fill="#B0C8D6"/>
<path d="M99.8596 0H47.9423C47.6374 0 47.3904 0.230781 47.3904 0.515594V4.73878C47.3904 5.0236 47.6374 5.25438 47.9423 5.25438H99.8596C100.164 5.25438 100.411 5.0236 100.411 4.73878V0.515594C100.411 0.230781 100.164 0 99.8596 0Z" fill="#E1EFFB"/>
<path d="M63.859 21.6256H56.9289C56.6697 21.6256 56.4595 21.4291 56.4595 21.187V13.417C56.4595 13.1748 56.6697 12.9784 56.9289 12.9784H63.859C64.1181 12.9784 64.3284 13.1748 64.3284 13.417V21.187C64.3284 21.4291 64.1181 21.6256 63.859 21.6256Z" fill="#61AFF6"/>
<path d="M77.6379 21.6256H70.7078C70.4486 21.6256 70.2384 21.4291 70.2384 21.187V13.417C70.2384 13.1748 70.4486 12.9784 70.7078 12.9784H77.6379C77.8971 12.9784 78.1073 13.1748 78.1073 13.417V21.187C78.1073 21.4291 77.8971 21.6256 77.6379 21.6256Z" fill="#61AFF6"/>
<path d="M91.4168 21.6256H84.4867C84.2276 21.6256 84.0173 21.4291 84.0173 21.187V13.417C84.0173 13.1748 84.2276 12.9784 84.4867 12.9784H91.4168C91.676 12.9784 91.8862 13.1748 91.8862 13.417V21.187C91.8862 21.4291 91.676 21.6256 91.4168 21.6256Z" fill="#61AFF6"/>
<path d="M63.859 40.921H56.9289C56.6697 40.921 56.4595 40.7246 56.4595 40.4824V32.7124C56.4595 32.4702 56.6697 32.2738 56.9289 32.2738H63.859C64.1181 32.2738 64.3284 32.4702 64.3284 32.7124V40.4824C64.3284 40.7246 64.1181 40.921 63.859 40.921Z" fill="#61AFF6"/>
<path d="M77.6379 40.921H70.7078C70.4486 40.921 70.2384 40.7246 70.2384 40.4824V32.7124C70.2384 32.4702 70.4486 32.2738 70.7078 32.2738H77.6379C77.8971 32.2738 78.1073 32.4702 78.1073 32.7124V40.4824C78.1073 40.7246 77.8971 40.921 77.6379 40.921Z" fill="#61AFF6"/>
<path d="M91.4168 40.921H84.4867C84.2276 40.921 84.0173 40.7246 84.0173 40.4824V32.7124C84.0173 32.4702 84.2276 32.2738 84.4867 32.2738H91.4168C91.676 32.2738 91.8862 32.4702 91.8862 32.7124V40.4824C91.8862 40.7246 91.676 40.921 91.4168 40.921Z" fill="#61AFF6"/>
<path d="M63.859 60.2163H56.9289C56.6697 60.2163 56.4595 60.0198 56.4595 59.7777V52.0077C56.4595 51.7655 56.6697 51.5691 56.9289 51.5691H63.859C64.1181 51.5691 64.3284 51.7655 64.3284 52.0077V59.7777C64.3284 60.0198 64.1181 60.2163 63.859 60.2163Z" fill="#61AFF6"/>
<path d="M77.6379 60.2163H70.7078C70.4486 60.2163 70.2384 60.0198 70.2384 59.7777V52.0077C70.2384 51.7655 70.4486 51.5691 70.7078 51.5691H77.6379C77.8971 51.5691 78.1073 51.7655 78.1073 52.0077V59.7777C78.1073 60.0198 77.8971 60.2163 77.6379 60.2163Z" fill="#61AFF6"/>
<path d="M91.4168 60.2163H84.4867C84.2276 60.2163 84.0173 60.0198 84.0173 59.7777V52.0077C84.0173 51.7655 84.2276 51.5691 84.4867 51.5691H91.4168C91.676 51.5691 91.8862 51.7655 91.8862 52.0077V59.7777C91.8862 60.0198 91.676 60.2163 91.4168 60.2163Z" fill="#61AFF6"/>
<path d="M77.6379 79.5114H70.7078C70.4486 79.5114 70.2384 79.315 70.2384 79.0729V71.3029C70.2384 71.0607 70.4486 70.8643 70.7078 70.8643H77.6379C77.8971 70.8643 78.1073 71.0607 78.1073 71.3029V79.0729C78.1073 79.315 77.8971 79.5114 77.6379 79.5114Z" fill="#61AFF6"/>
<path d="M63.859 79.5114H56.9289C56.6697 79.5114 56.4595 79.315 56.4595 79.0729V71.3029C56.4595 71.0607 56.6697 70.8643 56.9289 70.8643H63.859C64.1181 70.8643 64.3284 71.0607 64.3284 71.3029V79.0729C64.3284 79.315 64.1181 79.5114 63.859 79.5114Z" fill="#61AFF6"/>
<path d="M91.4168 79.5114H84.4867C84.2276 79.5114 84.0173 79.315 84.0173 79.0729V71.3029C84.0173 71.0607 84.2276 70.8643 84.4867 70.8643H91.4168C91.676 70.8643 91.8862 71.0607 91.8862 71.3029V79.0729C91.8862 79.315 91.676 79.5114 91.4168 79.5114Z" fill="#61AFF6"/>
<path d="M105.336 76.0939L81.8057 90.8077L74.7932 90.4399L74.5188 87.8609C74.1103 84.0218 70.9466 80.9409 66.8585 80.4004L48.0697 78.3792C43.7354 77.806 39.5623 76.4491 35.7841 74.3839C30.6256 71.5644 24.757 70.0782 18.7807 70.0782H5.23395V98.9699L41.0363 111.638C42.3893 111.995 43.8104 112.101 45.1991 111.896C45.2076 111.895 45.2158 111.894 45.2242 111.893L81.2686 107.038C84.0455 106.624 86.6557 105.531 88.8348 103.87L112.131 84.2933C114.222 82.5586 114.609 79.6435 113.036 77.4836C111.315 75.1204 107.875 74.4996 105.336 76.0939Z" fill="#FED9A8"/>
<path d="M113.344 77.9639L90.3173 96.0744C88.1381 97.7349 84.5156 98.8278 81.7387 99.2421L45.2242 101.681C45.2158 101.682 45.2076 101.683 45.1991 101.685C43.8104 101.89 42.3893 101.783 41.0363 101.426L5.23395 88.7579V98.97L41.0363 111.638C41.7129 111.816 42.4064 111.932 43.1043 111.978C43.2787 111.989 43.4536 111.996 43.6284 111.999C44.1531 112.007 44.6785 111.974 45.1991 111.897C45.2076 111.895 45.2158 111.894 45.2242 111.893L81.2686 107.038C82.1365 106.909 82.988 106.713 83.8151 106.454C83.9806 106.402 84.145 106.348 84.3084 106.292C85.1255 106.008 85.9166 105.662 86.6737 105.258C86.8252 105.177 86.9752 105.093 87.1239 105.008C87.7186 104.665 88.2903 104.286 88.8351 103.87L112.131 84.2934C114.071 82.6843 114.541 80.0597 113.344 77.9639Z" fill="#F4C892"/>
<path d="M77.5234 90.5877L37.8609 89.1048C37.6715 89.0978 37.4872 89.0457 37.3255 88.9536L35.2187 87.7547C34.1942 87.1715 34.7432 85.6951 35.9341 85.8312L77.5234 90.5877Z" fill="#F4C892"/>
<path d="M9.79944 108.784H4.4398C1.98765 108.784 0 106.926 0 104.635V67.575C0 65.2838 1.98789 63.4266 4.4398 63.4266H9.79967C12.2518 63.4266 14.2395 65.284 14.2395 67.575V104.635C14.2392 106.926 12.2516 108.784 9.79944 108.784Z" fill="#2D5871"/>
<path d="M99.8595 0H89.6022V5.25438H99.8595C100.164 5.25438 100.411 5.0236 100.411 4.73878V0.515594C100.411 0.230781 100.164 0 99.8595 0Z" fill="#CCDFED"/>
<path d="M9.79945 63.4266H7.11975V108.784H9.79969C12.2518 108.784 14.2395 106.927 14.2395 104.635V67.575C14.2393 65.2838 12.2516 63.4266 9.79945 63.4266Z" fill="#1D4859"/>
</svg>
