<svg width="82" height="82" viewBox="0 0 82 82" fill="none" xmlns="http://www.w3.org/2000/svg">
<g clip-path="url(#clip0)">
<path d="M42.4653 81.9514C48.7359 81.0605 54.2329 74.5159 57.692 64.8507C52.6916 63.7308 47.5888 63.1297 42.4653 63.0582V81.9514Z" fill="black"/>
<path d="M52.4834 80.4144C52.8541 80.307 53.2233 80.199 53.5897 80.0802C53.8988 79.9807 54.2037 79.8734 54.5085 79.7668C54.8692 79.6423 55.2284 79.5142 55.5862 79.3782C55.891 79.2623 56.193 79.1392 56.4956 79.0161C56.8448 78.8695 57.1933 78.7235 57.5382 78.5768C57.8395 78.4444 58.1386 78.3056 58.4377 78.166C58.7762 78.0065 59.1132 77.844 59.4474 77.6752C59.7408 77.5256 60.0334 77.3732 60.3268 77.2165C60.6553 77.0405 60.9816 76.8608 61.3057 76.6762C61.5991 76.5102 61.8817 76.3435 62.1673 76.1717C62.485 75.9764 62.8012 75.781 63.1154 75.5857C63.3966 75.4068 63.6771 75.225 63.954 75.0376C64.2632 74.8293 64.568 74.6125 64.8714 74.3957C65.144 74.2003 65.4152 74.0057 65.6814 73.8096C65.9748 73.5835 66.2753 73.3495 66.5694 73.1148C66.8306 72.9066 67.0911 72.6998 67.348 72.4858C67.6406 72.2425 67.9212 71.9907 68.2052 71.7388C68.4543 71.5177 68.7047 71.2987 68.948 71.0719C69.2278 70.8107 69.5004 70.5402 69.773 70.2719C70.0092 70.0386 70.2482 69.8089 70.4793 69.5699C70.5222 69.5255 70.563 69.4776 70.6074 69.4318C67.411 67.781 64.0442 66.4851 60.5658 65.5677C58.7568 71.3366 55.5375 76.5646 51.1997 80.7765C51.3185 80.7457 51.4373 80.7206 51.5561 80.6899C51.8695 80.6019 52.1772 80.5052 52.4834 80.4144Z" fill="black"/>
<path d="M82.0002 42.4991H64.4286C64.3621 49.36 63.3667 56.1801 61.4697 62.7741C65.3381 63.8074 69.0712 65.2929 72.5918 67.1999C78.3722 60.2331 81.681 51.5468 82.0002 42.4991Z" fill="black"/>
<path d="M42.4653 39.5681H61.4974C61.423 32.9498 60.4519 26.3723 58.6122 20.0145C53.3127 21.223 47.9001 21.8685 42.4653 21.9401V39.5681Z" fill="black"/>
<path d="M42.4653 0.11586V19.0091C47.5888 18.9368 52.6916 18.3364 57.692 17.2166C54.2329 7.55136 48.7359 1.00675 42.4653 0.11586Z" fill="black"/>
<path d="M42.4653 60.1272C47.9001 60.1995 53.3127 60.8449 58.6122 62.0535C60.4519 55.6957 61.423 49.1174 61.4974 42.4991H42.4653V60.1272Z" fill="black"/>
<path d="M72.5918 14.8673C69.0712 16.7743 65.3381 18.2599 61.4697 19.2931C63.3667 25.8871 64.3621 32.7072 64.4286 39.5681H82.0002C81.6803 30.5212 78.3715 21.8349 72.5918 14.8673Z" fill="black"/>
<path d="M70.6121 12.6441C70.5691 12.6004 70.5283 12.5532 70.4861 12.5081C70.2543 12.2691 70.0138 12.0387 69.7777 11.8061C69.5058 11.5378 69.2346 11.2666 68.9541 11.0061C68.7115 10.78 68.4603 10.5661 68.2113 10.3407C67.9272 10.0888 67.6432 9.83475 67.3512 9.59145C67.0979 9.3775 66.8381 9.17284 66.5805 8.96747C66.2871 8.7299 65.9866 8.49377 65.6846 8.26693C65.4199 8.06729 65.1515 7.87408 64.8818 7.68088C64.5755 7.46048 64.2678 7.2408 63.9558 7.03114C63.6818 6.84652 63.4034 6.6662 63.125 6.48945C62.808 6.28551 62.4918 6.08587 62.169 5.89267C61.8864 5.72308 61.6009 5.55563 61.3146 5.3932C60.9869 5.20572 60.6585 5.02396 60.3271 4.8465C60.0338 4.69981 59.7411 4.54024 59.4477 4.39354C59.1107 4.22324 58.7708 4.05937 58.4223 3.89837C58.1289 3.75883 57.8312 3.62287 57.5293 3.49049C57.1822 3.33665 56.8316 3.19783 56.4817 3.05113C56.1797 2.92806 55.8792 2.80641 55.5743 2.69049C55.2187 2.55453 54.858 2.42716 54.4974 2.30265C54.1925 2.19531 53.8877 2.08869 53.5786 1.98851C53.2122 1.86973 52.8458 1.76167 52.4695 1.65291C52.1646 1.56346 51.8584 1.47258 51.5499 1.39101C51.4319 1.35881 51.3117 1.33376 51.1929 1.30299C55.5307 5.51484 58.7493 10.7421 60.559 16.5117C64.041 15.5944 67.4127 14.2978 70.6121 12.6441Z" fill="black"/>
<path d="M0 39.5681H17.5716C17.6381 32.7072 18.6335 25.8871 20.5297 19.2931C16.6621 18.2606 12.9289 16.775 9.40833 14.8673C3.62795 21.8341 0.319145 30.5212 0 39.5681Z" fill="black"/>
<path d="M39.5347 81.9514V63.0582C34.4113 63.1305 29.3085 63.7308 24.3081 64.8507C27.7665 74.5159 33.2642 81.0605 39.5347 81.9514Z" fill="black"/>
<path d="M39.535 42.4991H20.5029C20.5773 49.1174 21.5477 55.6957 23.3881 62.0535C28.6876 60.8442 34.0995 60.1988 39.535 60.1272V42.4991Z" fill="black"/>
<path d="M39.5347 0.11586C33.2642 1.00675 27.7665 7.55136 24.3081 17.2166C29.3085 18.3372 34.4113 18.9375 39.5347 19.0091V0.11586Z" fill="black"/>
<path d="M39.535 21.9401C34.1002 21.8685 28.6876 21.223 23.3881 20.0145C21.5477 26.3723 20.5773 32.9498 20.5029 39.5681H39.535V21.9401Z" fill="black"/>
<path d="M30.796 1.30154C30.6772 1.33231 30.5584 1.35736 30.4397 1.38813C30.1291 1.47113 29.8228 1.56344 29.5137 1.65289C29.1459 1.76023 28.781 1.86828 28.4117 1.98563C28.1005 2.08653 27.7942 2.19386 27.4879 2.30048C27.1294 2.42714 26.7702 2.55308 26.4153 2.68761C26.109 2.80496 25.8071 2.92661 25.5036 3.05112C25.1552 3.19781 24.806 3.3445 24.4618 3.49048C24.1598 3.62286 23.8614 3.76168 23.5623 3.90121C23.2238 4.06079 22.8868 4.22322 22.5526 4.3921C22.2592 4.54165 21.9659 4.69478 21.6732 4.85078C21.3447 5.02681 21.0192 5.20713 20.6957 5.39175C20.4023 5.55561 20.114 5.72377 19.8313 5.89551C19.5129 6.08728 19.198 6.2855 18.8846 6.48156C18.6027 6.66189 18.3229 6.84364 18.046 7.03112C17.7368 7.23935 17.432 7.45617 17.1286 7.67299C16.856 7.86834 16.5848 8.06297 16.3179 8.25976C16.018 8.48516 15.7318 8.71987 15.4298 8.95386C15.1694 9.16209 14.9067 9.36889 14.652 9.58428C14.3586 9.82614 14.0803 10.0766 13.7976 10.327C13.5472 10.5503 13.2946 10.7671 13.0498 10.9982C12.7715 11.258 12.5003 11.5278 12.2284 11.7954C11.9922 12.0287 11.7518 12.2591 11.5199 12.4988C11.4777 12.5432 11.4369 12.5918 11.3926 12.6369C14.5883 14.2884 17.9558 15.5843 21.4342 16.5017C23.2432 10.7356 26.4604 5.51125 30.796 1.30154Z" fill="black"/>
<path d="M12.2221 70.2611C12.4947 70.5295 12.7659 70.8007 13.0457 71.0619C13.289 71.2873 13.5395 71.5012 13.7892 71.7266C14.0733 71.9792 14.3574 72.2325 14.6493 72.4758C14.9026 72.6884 15.1609 72.8937 15.42 73.0998C15.7134 73.3374 16.006 73.5735 16.3166 73.8018C16.5806 74 16.849 74.1918 17.1173 74.3886C17.4236 74.6082 17.7327 74.8279 18.0447 75.039C18.3188 75.2236 18.5971 75.404 18.8755 75.5814C19.1925 75.7846 19.5088 75.9843 19.8315 76.1775C20.1141 76.3478 20.3996 76.5145 20.6859 76.6777C21.0136 76.8652 21.342 77.0469 21.6734 77.2237C21.966 77.3703 22.2594 77.5299 22.5528 77.6766C22.8898 77.8469 23.2297 78.0108 23.5782 78.1725C23.8716 78.3106 24.1693 78.4466 24.4712 78.5797C24.8183 78.7335 25.1682 78.8723 25.5188 79.019C25.8208 79.1421 26.1213 79.2638 26.4262 79.3797C26.7818 79.5163 27.1425 79.6437 27.5031 79.7682C27.8079 79.8748 28.1128 79.9822 28.4219 80.0816C28.7883 80.2004 29.1546 80.3092 29.531 80.4173C29.8359 80.5067 30.1421 80.5976 30.4498 80.6799C30.5686 80.7121 30.6888 80.7371 30.8076 80.7679C26.4698 76.5553 23.2512 71.3281 21.4415 65.5584C17.9631 66.4765 14.5956 67.7724 11.3999 69.4246C11.4428 69.4683 11.4836 69.5155 11.5266 69.5606C11.7462 69.7982 11.9831 70.0286 12.2221 70.2611Z" fill="black"/>
<path d="M9.40833 67.1999C12.9289 65.2929 16.6621 63.8074 20.5297 62.7741C18.6335 56.1801 17.6381 49.36 17.5716 42.4991H0C0.31986 51.5461 3.62795 60.2324 9.40833 67.1999Z" fill="black"/>
</g>
<defs>
<clipPath id="clip0">
<rect width="82" height="82" fill="white"/>
</clipPath>
</defs>
</svg>
