<svg width="15" height="22" viewBox="0 0 15 22" fill="none" xmlns="http://www.w3.org/2000/svg">
<path d="M13.1663 4.13008C11.9175 1.9662 9.69942 0.644197 7.23283 0.593675C7.12754 0.591496 7.02156 0.591496 6.91623 0.593675C4.44968 0.644197 2.23158 1.9662 0.982753 4.13008C-0.293723 6.3419 -0.328647 8.99874 0.889314 11.2372L5.9918 20.6146C5.99409 20.6188 5.99638 20.6229 5.99876 20.6271C6.22325 21.0189 6.62542 21.2527 7.07461 21.2527C7.52376 21.2527 7.92593 21.0188 8.15038 20.6271C8.15275 20.6229 8.15504 20.6188 8.15734 20.6146L13.2598 11.2372C14.4777 8.99874 14.4428 6.3419 13.1663 4.13008ZM7.07453 9.95393C5.47899 9.95393 4.18094 8.65057 4.18094 7.04852C4.18094 5.44647 5.47899 4.14312 7.07453 4.14312C8.67006 4.14312 9.96812 5.44647 9.96812 7.04852C9.96812 8.65057 8.6701 9.95393 7.07453 9.95393Z" fill="white"/>
</svg>
