<svg width="82" height="82" viewBox="0 0 82 82" fill="none" xmlns="http://www.w3.org/2000/svg">
<path fill-rule="evenodd" clip-rule="evenodd" d="M79.1854 34.6194C78.8088 34.3154 78.3152 34.1977 77.8428 34.2991L53.4002 39.5286L50.6588 38.9424L57.8921 24.4539C57.904 24.4301 57.9153 24.4063 57.9259 24.3825C58.8968 22.1723 59.3892 19.8206 59.3892 17.392C59.3892 7.80199 51.5878 0 41.9978 0C32.4079 0 24.6059 7.80199 24.6059 17.392C24.6059 19.8206 25.0982 22.1723 26.0698 24.3825C26.0804 24.4063 26.0911 24.4301 26.103 24.4539L31.2655 34.7927L28.957 34.2991C28.9357 34.2941 28.9138 34.2922 28.8919 34.2891C28.8607 34.2834 28.83 34.2778 28.7987 34.2741C28.7699 34.2709 28.7418 34.2703 28.7136 34.2684C28.6824 34.2666 28.6517 34.2641 28.621 34.2641C28.5916 34.2641 28.5629 34.2666 28.5335 34.2678C28.5034 34.2697 28.4734 34.2709 28.444 34.2741C28.4133 34.2778 28.3833 34.2834 28.3533 34.2885C28.3308 34.2922 28.3089 34.2941 28.2863 34.2985L3.50842 39.6005C2.7702 39.7582 2.24219 40.4113 2.24219 41.1664V54.3762C2.24219 55.2608 2.95914 55.9777 3.84375 55.9777C4.72836 55.9777 5.44531 55.2608 5.44531 54.3762V42.4614L27.0201 37.8457V73.802L5.44531 78.4178V67.1887C5.44531 66.3041 4.72836 65.5871 3.84375 65.5871C2.95914 65.5871 2.24219 66.3041 2.24219 67.1887V80.3984C2.24219 80.882 2.46053 81.34 2.83652 81.6434C3.1243 81.8761 3.48027 82 3.84375 82C3.95511 82 4.06772 81.9881 4.17908 81.9643L28.6217 76.7349L53.0649 81.9643C53.0737 81.9662 53.0824 81.9675 53.0912 81.9687C53.1268 81.9756 53.1625 81.9812 53.1982 81.9856C53.2144 81.9875 53.2301 81.99 53.2463 81.9919C53.297 81.9969 53.3483 82 53.4002 82C53.4515 82 53.5028 81.9969 53.5535 81.9919C53.5698 81.99 53.586 81.9875 53.6017 81.9856C53.6373 81.9812 53.673 81.9756 53.708 81.9687C53.7168 81.9668 53.7262 81.9662 53.7349 81.9643L78.5128 76.6629C79.2517 76.5046 79.7797 75.8521 79.7797 75.097V61.8873C79.7797 61.0026 79.0628 60.2857 78.1781 60.2857C77.2935 60.2857 76.5766 61.0026 76.5766 61.8873V73.8014L55.0018 78.4178V42.4614L76.5766 37.8457V49.0748C76.5766 49.9594 77.2935 50.6763 78.1781 50.6763C79.0628 50.6763 79.7797 49.9594 79.7797 49.0748V35.865C79.7797 35.3814 79.5614 34.9241 79.1854 34.6194ZM27.809 17.392C27.809 9.56808 34.174 3.20312 41.9978 3.20312C49.8217 3.20312 56.1867 9.56808 56.1867 17.392C56.1867 19.3614 55.7901 21.2676 55.0087 23.0587L41.9978 49.1185L28.987 23.0587C28.205 21.2676 27.809 19.3614 27.809 17.392ZM30.2232 37.8457L33.096 38.46L40.5652 53.419C40.8361 53.962 41.391 54.3055 41.9978 54.3055C42.6047 54.3055 43.1596 53.962 43.4311 53.419L49.1811 41.9015L51.7987 42.4614V78.4178L30.2239 73.8014V37.8457H30.2232Z" fill="black"/>
<path fill-rule="evenodd" clip-rule="evenodd" d="M52.2962 17.392C52.2962 11.7133 47.6767 7.09317 41.998 7.09317C36.3194 7.09317 31.6992 11.7133 31.6992 17.392C31.6992 23.0706 36.3194 27.6901 41.998 27.6901C47.6767 27.6901 52.2962 23.0706 52.2962 17.392ZM34.9023 17.392C34.9023 13.4794 38.0854 10.2963 41.998 10.2963C45.9106 10.2963 49.0937 13.4794 49.0937 17.392C49.0937 21.3039 45.9106 24.487 41.998 24.487C38.0854 24.487 34.9023 21.3039 34.9023 17.392Z" fill="black"/>
<path fill-rule="evenodd" clip-rule="evenodd" d="M3.84375 62.384C4.72586 62.384 5.44531 61.6645 5.44531 60.7824C5.44531 59.9003 4.72586 59.1809 3.84375 59.1809C2.96164 59.1809 2.24219 59.9003 2.24219 60.7824C2.24219 61.6645 2.96164 62.384 3.84375 62.384Z" fill="black"/>
<path fill-rule="evenodd" clip-rule="evenodd" d="M78.1782 53.8794C77.2961 53.8794 76.5767 54.5989 76.5767 55.481C76.5767 56.3631 77.2961 57.0826 78.1782 57.0826C79.0603 57.0826 79.7798 56.3631 79.7798 55.481C79.7798 54.5989 79.0603 53.8794 78.1782 53.8794Z" fill="black"/>
</svg>
