<svg width="114" height="122" viewBox="0 0 114 122" fill="none" xmlns="http://www.w3.org/2000/svg">
<path d="M64.054 104.29V120.032H53.0733V100.138C55.4525 102.716 58.765 104.29 62.3703 104.29H64.054Z" fill="#FCD770"/>
<path d="M56.7335 92.484H49.4131C49.8706 95.4749 51.1883 98.1117 53.0733 100.138V120.032H40.2625V112.161H42.0926C43.0992 112.161 44.0142 111.728 44.6731 111C45.3502 110.292 45.7529 109.308 45.7529 108.226C45.7529 106.061 44.1058 104.29 42.0926 104.29H40.2625V80.6775V59.0323C49.102 61.2362 56.3126 67.3953 60.3938 75.5614V92.484H56.7335Z" fill="#FCD770"/>
<path d="M25.6215 112.161V120.032H12.8107V110.528V110.508C15.0435 111.571 17.5324 112.161 20.1312 112.161H25.6215Z" fill="#FCD770"/>
<path d="M29.2818 104.29V112.161H25.6216H20.1313C17.5325 112.161 15.0436 111.571 12.8108 110.508C6.35052 107.478 1.83014 100.552 1.83014 92.484V91.1853C1.83014 75.8172 11.6945 62.4956 25.6216 59.0323V80.6775V103.405L29.2818 104.29Z" fill="#FCD770"/>
<path d="M29.2819 112.161H40.2626V120.032H25.6216V112.161H29.2819Z" fill="#E6E9ED"/>
<path d="M40.2626 80.6773V104.29C40.2626 102.126 38.6155 100.355 36.6023 100.355H34.4611C33.4911 100.355 32.5578 100.768 31.8623 101.516L29.2819 104.29L25.6216 103.405V80.6773L32.9421 70.8386L40.2626 80.6773Z" fill="#E6E9ED"/>
<path d="M40.2625 59.0323V80.6775L32.942 70.8388L40.2625 59.0323Z" fill="#CCD1D9"/>
<path d="M25.6216 59.0323L32.9421 70.8388L25.6216 80.6775V59.0323Z" fill="#CCD1D9"/>
<path d="M104.317 92.4839H111.637C111.106 95.8881 109.477 98.8397 107.172 100.945C104.866 103.031 101.901 104.29 98.6798 104.29H87.8455C87.8455 103.208 87.4429 102.224 86.7658 101.516C86.1069 100.788 85.1919 100.355 84.1853 100.355H76.8649C74.8517 100.355 73.2046 102.126 73.2046 104.29H64.0541H62.3704C58.765 104.29 55.4525 102.716 53.0734 100.138C51.1884 98.1116 49.8707 95.4749 49.4131 92.4839H56.7336H60.3938H82.3552H100.656H104.317Z" fill="#AAB2BD"/>
<path d="M100.656 68.871V92.4839H82.3552V68.871H96.9961H100.656Z" fill="#D3A06C"/>
<path d="M96.9961 37.3871V68.871H82.3551V61H67.7142V37.3871H75.0347H82.3551H89.6756H96.9961Z" fill="#DFB28B"/>
<path d="M67.7142 61H82.3551V68.871V92.4839H60.3937V75.5613V61H67.7142Z" fill="#E6E9ED"/>
<path d="M86.7657 101.516C87.4429 102.224 87.8455 103.208 87.8455 104.29C87.8455 106.455 87.022 108.423 85.7043 109.859C84.3683 111.276 82.5382 112.161 80.525 112.161C78.5119 112.161 76.6818 111.276 75.3458 109.859C74.0281 108.423 73.2046 106.455 73.2046 104.29C73.2046 102.126 74.8517 100.355 76.8648 100.355H84.1853C85.1918 100.355 86.1069 100.788 86.7657 101.516Z" fill="#F0D0B4"/>
<path d="M42.0926 104.29C44.1057 104.29 45.7528 106.061 45.7528 108.226C45.7528 109.308 45.3502 110.292 44.6731 111C44.0142 111.729 43.0992 112.161 42.0926 112.161H40.2625H29.2818V104.29L31.8623 101.516C32.5577 100.768 33.4911 100.355 34.461 100.355H36.6023C38.6154 100.355 40.2625 102.126 40.2625 104.29H42.0926Z" fill="#F0D0B4"/>
<path d="M51.4628 37.151C52.4511 38.2136 53.0733 39.6894 53.0733 41.3227C53.0733 44.5891 50.621 47.2259 47.583 47.2259H45.515C45.6797 46.5962 45.7529 45.9469 45.7529 45.2581V35.4194H47.583C49.102 35.4194 50.4746 36.0885 51.4628 37.151Z" fill="#F0D0B4"/>
<path d="M38.4324 53.129L40.2626 59.0323L32.9421 70.8387L25.6216 59.0323L27.4518 53.129H38.4324Z" fill="#F0D0B4"/>
<path d="M45.7529 35.4192V45.2579C45.7529 45.9466 45.6797 46.596 45.515 47.2257C44.7097 50.6299 41.8364 53.1289 38.4324 53.1289H27.4517C24.0477 53.1289 21.1745 50.6299 20.3692 47.2257C20.2045 46.596 20.1313 45.9466 20.1313 45.2579V35.4192V29.516H45.7529V35.4192Z" fill="#F0D0B4"/>
<path d="M20.3691 47.2259H18.3011C16.7821 47.2259 15.4095 46.5569 14.4212 45.4943C13.433 44.4317 12.8107 42.9559 12.8107 41.3227C12.8107 38.0562 15.2631 35.4194 18.3011 35.4194H20.1312V45.2581C20.1312 45.9469 20.2044 46.5962 20.3691 47.2259Z" fill="#F0D0B4"/>
<path d="M53.0733 29.516V41.3224C53.0733 39.6892 52.451 38.2134 51.4628 37.1508C50.4745 36.0882 49.1019 35.4192 47.5829 35.4192H45.7528V29.516H53.0733Z" fill="#656D78"/>
<path d="M18.3011 35.4192C15.2631 35.4192 12.8107 38.056 12.8107 41.3224V29.516H20.1312V35.4192H18.3011Z" fill="#656D78"/>
<path d="M53.0001 21.6451H36.6023V2.34158V2.3219C40.4089 3.06964 43.8312 4.97835 46.5581 7.67416C50.1451 11.2161 52.5243 16.1354 53.0001 21.6451Z" fill="#FF826E"/>
<path d="M29.2819 2.34158V21.6451H12.884C13.7076 11.9245 20.4973 4.05351 29.2819 2.3219V2.34158Z" fill="#FF826E"/>
<path d="M36.6023 2.34152V21.6451H29.2818V2.34152V2.32185C30.4714 2.08572 31.6975 1.96765 32.942 1.96765C34.1865 1.96765 35.4127 2.08572 36.6023 2.32185V2.34152Z" fill="#FC6E51"/>
<path d="M10.9807 21.645H12.884H29.2818H36.6023H53.0001H54.9034C55.91 21.645 56.7335 22.5305 56.7335 23.6128V27.5482C56.7335 28.6305 55.91 29.516 54.9034 29.516H53.0733H45.7529H20.1313H12.8108H10.9807C9.97413 29.516 9.15057 28.6305 9.15057 27.5482V23.6128C9.15057 22.5305 9.97413 21.645 10.9807 21.645Z" fill="#FC6E51"/>
<path d="M107.02 90.5161L113.335 73.5385L109.937 72.0764L103.078 90.5161H102.486V66.9032H98.8262V35.4194H91.5057V27.5484H87.8455V35.4194H84.1852V23.6129H80.525V35.4194H76.8648V27.5484H73.2046V35.4194H65.8841V59.0323H58.5636V69.1248C54.2501 63.4302 48.3626 59.2822 41.6808 57.3813L40.85 54.7032C43.5183 53.9102 45.7108 51.8815 46.807 49.1936H47.583C51.6202 49.1936 54.9034 45.6634 54.9034 41.3226V31.4839C56.922 31.4839 58.5636 29.7188 58.5636 27.5484V23.6129C58.5636 21.4425 56.922 19.6774 54.9034 19.6774H54.585C52.8336 8.34323 43.8184 0 32.9421 0C22.0657 0 13.0505 8.34323 11.2991 19.6774H10.9807C8.96207 19.6774 7.32046 21.4425 7.32046 23.6129V27.5484C7.32046 29.7188 8.96207 31.4839 10.9807 31.4839V41.3226C10.9807 45.6634 14.2639 49.1936 18.3011 49.1936H19.0771C20.1752 51.8815 22.3658 53.9122 25.0341 54.7032L24.2033 57.3813C9.90092 61.4368 0 75.1835 0 91.1891V92.4839C0 100.874 4.4728 108.149 10.9807 111.74V122H65.8841V106.258H71.5593C72.4103 110.743 76.1053 114.129 80.525 114.129C84.9447 114.129 88.6397 110.743 89.4907 106.258H98.6761C106.024 106.258 112.235 100.601 113.443 92.8085L113.798 90.5161H107.02ZM84.1852 90.5161V70.8387H98.8262V90.5161H84.1852ZM69.5443 39.3548H95.1659V66.9032H84.1852V59.0323H69.5443V39.3548ZM80.525 62.9677V90.5161H62.2239V62.9677H80.525ZM58.5636 76.1044V90.5161H57.9725L51.1114 72.0744L47.7129 73.5365L54.0305 90.5161H47.2535L47.6086 92.8085C48.0936 95.9373 49.3948 98.7137 51.2432 100.925V118.065H42.0926V114.129C45.1196 114.129 47.583 111.48 47.583 108.226C47.583 104.971 45.1196 102.323 42.0926 102.323V61.6435C49.0708 64.0284 54.973 69.176 58.5636 76.1044ZM37.1129 55.0968L38.2421 58.741L32.9421 67.2909L27.6402 58.741L28.7712 55.0968H37.1129ZM38.4324 75.0674L35.2077 70.7325L38.4324 65.5317V75.0674ZM27.4517 75.0674V65.5317L30.6764 70.7325L27.4517 75.0674ZM27.4517 81.3661L32.9421 73.9871L38.4324 81.3661V98.7334C37.8577 98.515 37.2447 98.3871 36.6023 98.3871H34.4592C32.9933 98.3871 31.6134 99.001 30.5757 100.117L28.698 102.136L27.4517 101.837V81.3661ZM31.1119 105.105L33.1635 102.899C33.5094 102.527 33.9706 102.323 34.4592 102.323H36.6023C37.6107 102.323 38.4324 103.206 38.4324 104.29V106.258H42.0926C43.101 106.258 43.9227 107.142 43.9227 108.226C43.9227 109.31 43.101 110.194 42.0926 110.194H31.1119V105.105ZM38.4324 114.129V118.065H27.4517V114.129H38.4324ZM47.583 45.2581V37.3871C49.6016 37.3871 51.2432 39.1522 51.2432 41.3226C51.2432 43.493 49.6016 45.2581 47.583 45.2581ZM51.2432 34.5457C50.1616 33.8688 48.9226 33.4516 47.583 33.4516V31.4839H51.2432V34.5457ZM50.8698 19.6774H38.4324V4.83671C44.7188 6.93235 49.5412 12.5385 50.8698 19.6774ZM34.7722 4.03387V19.6774H31.1119V4.03387C31.714 3.9709 32.3235 3.93548 32.9421 3.93548C33.5606 3.93548 34.1701 3.9709 34.7722 4.03387ZM27.4517 4.83671V19.6774H15.0143C16.3429 12.5385 21.1653 6.93235 27.4517 4.83671ZM10.9789 23.6129H10.9807H54.9034V27.5484H10.9807L10.9789 23.6129ZM18.3011 31.4839V33.4516C16.9615 33.4516 15.7225 33.8688 14.6409 34.5457V31.4839H18.3011ZM14.6409 41.3226C14.6409 39.1522 16.2825 37.3871 18.3011 37.3871V45.2581C16.2825 45.2581 14.6409 43.493 14.6409 41.3226ZM21.9614 45.2581V31.4839H43.9227V45.2581C43.9227 48.5127 41.4594 51.1613 38.4324 51.1613H27.4517C24.4247 51.1613 21.9614 48.5127 21.9614 45.2581ZM3.66023 92.4839V91.1891C3.66023 77.4936 11.8299 65.6714 23.7915 61.6159V100.965L21.8058 100.491C17.5874 99.4812 14.6409 95.5319 14.6409 90.8841V82.6452H10.9807V90.8841C10.9807 97.3895 15.1058 102.919 21.0115 104.33L27.4517 105.868V110.194H20.1313C11.0502 110.194 3.66023 102.248 3.66023 92.4839ZM14.6409 113.291C16.3887 113.824 18.2261 114.129 20.1313 114.129H23.7915V118.065H14.6409V113.291ZM54.9034 118.065V104.121C57.0684 105.459 59.5702 106.223 62.2239 106.252V118.065H54.9034ZM80.525 110.194C77.498 110.194 75.0347 107.545 75.0347 104.29C75.0347 103.206 75.8564 102.323 76.8648 102.323H84.1852C85.1936 102.323 86.0154 103.206 86.0154 104.29C86.0154 107.545 83.552 110.194 80.525 110.194ZM98.6743 102.323H89.337C88.5793 100.038 86.5662 98.3871 84.1834 98.3871H76.863C74.4801 98.3871 72.467 100.038 71.7094 102.323H62.3721C57.5699 102.323 53.4119 99.125 51.7849 94.4516H109.258C107.634 99.125 103.478 102.323 98.6743 102.323Z" fill="black"/>
<path d="M80.525 43.2904H84.1852V47.2259H80.525V43.2904Z" fill="black"/>
<path d="M73.2046 43.2904H76.8648V47.2259H73.2046V43.2904Z" fill="black"/>
<path d="M87.8455 43.2904H91.5057V47.2259H87.8455V43.2904Z" fill="black"/>
<path d="M87.8455 51.1614H91.5057V55.0969H87.8455V51.1614Z" fill="black"/>
<path d="M73.2046 51.1614H76.8648V55.0969H73.2046V51.1614Z" fill="black"/>
<path d="M80.525 51.1614H84.1852V55.0969H80.525V51.1614Z" fill="black"/>
<path d="M87.8455 59.0323H91.5057V62.9678H87.8455V59.0323Z" fill="black"/>
<path d="M65.8841 66.9032H69.5443V86.5806H65.8841V66.9032Z" fill="black"/>
<path d="M73.2046 66.9032H76.8648V86.5806H73.2046V66.9032Z" fill="black"/>
<path d="M87.8455 74.7742H95.166V78.7097H87.8455V74.7742Z" fill="black"/>
<path d="M87.8455 82.645H95.166V86.5805H87.8455V82.645Z" fill="black"/>
</svg>
