<svg width="114" height="114" viewBox="0 0 114 114" fill="none" xmlns="http://www.w3.org/2000/svg">
<path d="M5.8965 98.276C2.64018 98.276 0 95.6358 0 92.3795V21.6215C0 18.3652 2.64018 15.725 5.8965 15.725H102.206V98.276H5.8965Z" fill="#348FD9"/>
<path d="M0 9.82851C0 6.57219 2.64018 3.93201 5.8965 3.93201H11.793V86.483H5.8965C2.64018 86.483 0 89.1232 0 92.3795V9.82851Z" fill="#4DB7E5"/>
<path d="M87.0579 25.9594L76.6545 36.3627L74.689 42.2592L75.2648 42.8351L69.3683 48.7316L72.1477 51.5109L78.0442 45.6144L78.62 46.1902L84.5165 44.2247L102.206 26.5352V15.725H97.2923L87.0579 25.9594Z" fill="#3086CD"/>
<path d="M92.3632 54.9543C92.3574 54.7221 92.3104 54.4917 92.225 54.2758C92.225 54.2624 92.2096 54.2528 92.2038 54.2384C92.1376 54.0839 92.0512 53.9389 91.9476 53.8065L76.2236 34.1515C75.8512 33.6851 75.2859 33.4144 74.689 33.4144H43.241C42.6585 33.4173 42.1085 33.6793 41.7371 34.1275C41.7371 34.14 41.7141 34.1419 41.7064 34.1515L25.9824 53.8065C25.8797 53.9399 25.7933 54.0848 25.7262 54.2384C25.7262 54.2528 25.7108 54.2624 25.7051 54.2758C25.6196 54.4917 25.5726 54.7221 25.5669 54.9543C25.5669 54.9841 25.5515 55.0071 25.5515 55.0349V78.6209C25.5515 79.7064 26.4316 80.5864 27.517 80.5864H90.413C91.4985 80.5864 92.3785 79.7064 92.3785 78.6209V55.0349C92.3785 55.0071 92.3632 54.9841 92.3632 54.9543ZM73.7456 37.3454L86.3246 53.0694H59.9103L51.5234 42.5874L47.3313 37.3454H73.7456ZM43.241 38.5249L50.9965 48.22L54.8747 53.0694H31.6073L43.241 38.5249ZM29.4825 57.0004H56.9995V76.6554H51.103V62.8969C51.103 61.8115 50.2229 60.9314 49.1375 60.9314H37.3445C36.2591 60.9314 35.379 61.8115 35.379 62.8969V76.6554H29.4825V57.0004ZM39.31 76.6554V64.8624H47.172V76.6554H39.31ZM88.4475 76.6554H60.9305V57.0004H88.4475V76.6554Z" fill="#4DB7E5"/>
<path d="M70.758 72.7247H78.6201C79.7056 72.7247 80.5857 71.8446 80.5857 70.7591V62.897C80.5857 61.8116 79.7056 60.9315 78.6201 60.9315H70.758C69.6726 60.9315 68.7925 61.8116 68.7925 62.897V70.7591C68.7925 71.8446 69.6726 72.7247 70.758 72.7247ZM72.7236 64.8626H76.6546V68.7936H72.7236V64.8626Z" fill="#4DB7E5"/>
<path d="M21.6205 80.5865H17.6895V86.4831C17.6895 87.5686 18.5696 88.4486 19.655 88.4486H25.5516V84.5176H21.6205V80.5865Z" fill="#4DB7E5"/>
<path d="M21.6205 25.5525H25.5516V21.6215H19.655C18.5696 21.6215 17.6895 22.5015 17.6895 23.587V29.4836H21.6205V25.5525Z" fill="#4DB7E5"/>
<path d="M76.6545 36.3627L75.5671 39.6229L80.3571 45.6106L84.3314 44.2853L77.3973 35.6199L76.6545 36.3627Z" fill="#419BC2"/>
<path d="M70.758 35.38L68.7925 41.2765L72.7236 45.2076L78.6201 43.2421L79.6029 42.2593L71.7408 34.3972L70.758 35.38Z" fill="#CCCCCA"/>
<path d="M71.7417 34.3963L106.138 0L114 7.862L79.6037 42.2583L71.7417 34.3963Z" fill="#803F37"/>
<path d="M81.1613 24.9766L83.9407 22.1973L91.8038 30.0594L89.0234 32.8387L81.1613 24.9766Z" fill="#FFB531"/>
<path d="M63.4718 47.7479L69.3684 41.8503L72.1488 44.6307L66.2512 50.5272L63.4718 47.7479Z" fill="#CCCCCA"/>
<path d="M53.0685 114H113.999V53.0695L53.0685 114ZM102.206 102.207H82.551L102.206 82.552V102.207Z" fill="#FFB531"/>
<path d="M113.999 76.6555L102.206 88.4485V102.207H88.4475L76.6545 114H113.999V76.6555Z" fill="#FFA912"/>
</svg>
