<svg width="81" height="82" viewBox="0 0 81 82" fill="none" xmlns="http://www.w3.org/2000/svg">
<g clip-path="url(#clip0)">
<path d="M64.2305 4.96484H45.2461C36.0876 4.96484 28.6348 12.5096 28.6348 21.7812C28.6348 30.2388 34.834 37.2581 42.873 38.4264V45.8047C42.873 46.7759 43.45 47.6534 44.3377 48.024C45.213 48.3938 46.2398 48.1955 46.924 47.5031L55.7209 38.5977H64.2305C73.389 38.5977 81 31.0529 81 21.7812C81 12.5096 73.389 4.96484 64.2305 4.96484ZM45.2461 24.1833C43.9352 24.1833 42.873 23.1077 42.873 21.7809C42.873 20.4542 43.9352 19.3786 45.2461 19.3786C46.5566 19.3786 47.6191 20.4542 47.6191 21.7809C47.6191 23.1077 46.5566 24.1833 45.2461 24.1833ZM54.7383 24.1833C53.4274 24.1833 52.3652 23.1077 52.3652 21.7809C52.3652 20.4542 53.4274 19.3786 54.7383 19.3786C56.0488 19.3786 57.1113 20.4542 57.1113 21.7809C57.1113 23.1077 56.0488 24.1833 54.7383 24.1833ZM64.2305 24.1833C62.9196 24.1833 61.8574 23.1077 61.8574 21.7809C61.8574 20.4542 62.9196 19.3786 64.2305 19.3786C65.541 19.3786 66.6035 20.4542 66.6035 21.7809C66.6035 23.1077 65.541 24.1833 64.2305 24.1833Z" fill="black"/>
<path d="M53.3145 77.0352C57.2401 77.0352 60.4336 73.8022 60.4336 69.8281V60.2188C60.4336 59.1841 59.7801 58.2668 58.8114 57.9407L44.6065 53.136C43.9112 52.8991 43.1512 53.0069 42.5394 53.4152L36.5001 57.4902C30.104 54.4028 22.5145 46.7195 19.4647 40.2444L23.49 34.1306C23.8955 33.5135 23.9975 32.7417 23.7657 32.038L19.0197 17.6577C18.6977 16.6772 17.7915 16.0156 16.7695 16.0156H7.11914C3.19349 16.0156 0 19.2147 0 23.1889C0 50.8674 25.9735 77.0352 53.3145 77.0352Z" fill="black"/>
</g>
<defs>
<clipPath id="clip0">
<rect width="81" height="82" fill="white"/>
</clipPath>
</defs>
</svg>
