<svg width="114" height="114" viewBox="0 0 114 114" fill="none" xmlns="http://www.w3.org/2000/svg">
<path d="M57 114C88.4802 114 114 88.4802 114 57C114 25.5198 88.4802 0 57 0C25.5198 0 0 25.5198 0 57C0 88.4802 25.5198 114 57 114Z" fill="#348DDB"/>
<path d="M114 57C114 53.5488 113.693 50.1696 113.106 46.8874L94.3475 28.1293L19.6525 85.8707L46.8874 113.106C50.1696 113.693 53.5488 114 57 114C88.4802 114 114 88.4803 114 57Z" fill="#386DBF"/>
<path d="M19.6525 28.1293H94.3475V85.8707H19.6525V28.1293Z" fill="#E9EDF5"/>
<path d="M57.0267 28.1293H94.3475V85.8707H57.0267V28.1293Z" fill="#CDD2E1"/>
<path d="M27.6488 36.4844H86.3515V77.5155H27.6488V36.4844Z" fill="white"/>
<path d="M57.0267 36.4844H86.3512V77.5155H57.0267V36.4844Z" fill="#E9EDF5"/>
<path d="M79.5293 97.1436L72.1498 92.2835L64.7703 97.1436V74.5979H79.5293V97.1436Z" fill="#FF6C52"/>
<path d="M72.1375 74.5979L72.1498 92.2835L79.5293 97.1436V74.5979H72.1375Z" fill="#FF432E"/>
<path d="M33.9745 42.3074H53.3135V48.9871H33.9745V42.3074Z" fill="#CDD2E1"/>
<path d="M33.9745 65.0132H53.3135V71.6929H33.9745V65.0132Z" fill="#CDD2E1"/>
<path d="M33.9745 53.6602H81.4152V60.3398H33.9745V53.6602Z" fill="#CDD2E1"/>
<path d="M57.0267 53.6602H81.4152V60.3398H57.0267V53.6602Z" fill="#AFB4C8"/>
<path d="M72.1497 84.4893C78.3302 84.4893 83.3404 79.4791 83.3404 73.2986C83.3404 67.1182 78.3302 62.1079 72.1497 62.1079C65.9693 62.1079 60.959 67.1182 60.959 73.2986C60.959 79.4791 65.9693 84.4893 72.1497 84.4893Z" fill="#FFCE00"/>
<path d="M72.1498 62.1079C72.1457 62.1079 72.1417 62.1081 72.1375 62.1081V84.4886C72.1415 84.4886 72.1455 84.4889 72.1498 84.4889C78.3302 84.4889 83.3402 79.4787 83.3402 73.2982C83.3402 67.1181 78.33 62.1079 72.1498 62.1079Z" fill="#FDBA12"/>
</svg>
