<svg width="183" height="183" viewBox="0 0 183 183" fill="none" xmlns="http://www.w3.org/2000/svg">
<circle cx="91.5" cy="91.5" r="91.5" fill="white"/>
<path d="M61.6874 76.3368V85.2477H74.1514L81.6246 78.7283L74.1514 63.9079C67.2787 63.9079 61.6874 69.4835 61.6874 76.3368Z" fill="#989EEC"/>
<path d="M86.6153 76.3368C86.6153 69.4836 81.0239 63.9081 74.1514 63.9081V85.2477H86.6153V76.3368Z" fill="#6E76E4"/>
<path d="M71.6611 62.9692V78.7283H74.1514L75.3965 70.7208L74.1514 62.9692H71.6611Z" fill="#FFF68E"/>
<path d="M74.1514 62.9692H76.6416V78.7283H74.1514V62.9692Z" fill="#FFDA44"/>
<path d="M74.1514 49C69.4754 49 65.6713 52.7941 65.6713 57.4577C65.6713 62.1214 69.4756 65.9153 74.1514 65.9153L78.5362 57.4577L74.1514 49Z" fill="#FFCCBD"/>
<path d="M82.6314 57.4577C82.6314 52.7941 78.8274 49 74.1514 49V65.9155C78.8274 65.9155 82.6314 62.1214 82.6314 57.4577Z" fill="#FFBDA9"/>
<path d="M96.3847 76.3368V85.2477H108.849L116.322 78.7283L108.849 63.9079C101.976 63.9079 96.3847 69.4835 96.3847 76.3368Z" fill="#6E76E4"/>
<path d="M121.313 76.3368C121.313 69.4836 115.721 63.9081 108.849 63.9081V85.2477H121.313V76.3368Z" fill="#6E76E4"/>
<path d="M106.358 62.9692V78.7283H108.849L110.094 70.7208L108.849 62.9692H106.358Z" fill="#FFF68E"/>
<path d="M108.849 62.9692H111.339V78.7283H108.849V62.9692Z" fill="#FFDA44"/>
<path d="M108.849 49C104.173 49 100.369 52.7941 100.369 57.4577C100.369 62.1214 104.173 65.9153 108.849 65.9153L113.233 57.4577L108.849 49Z" fill="#FFCCBD"/>
<path d="M117.329 57.4577C117.329 52.7941 113.525 49 108.849 49V65.9155C113.525 65.9155 117.329 62.1214 117.329 57.4577Z" fill="#FFBDA9"/>
<path d="M58.1309 83.8762C53.0961 83.8762 49 87.9723 49 93.0071V106.594C49 111.629 53.0961 115.725 58.1309 115.725H91.5L101.9 98.1883L91.5 83.8762H58.1309Z" fill="#EDF5FF"/>
<path d="M124.869 83.8762H91.5V115.725H124.869C129.904 115.725 134 111.629 134 106.594V93.0071C134 87.9723 129.904 83.8762 124.869 83.8762Z" fill="#D5E8FE"/>
<path d="M61.6874 125.089V134H74.1514L81.6246 127.481L74.1514 112.66C67.2787 112.66 61.6874 118.236 61.6874 125.089Z" fill="#989EEC"/>
<path d="M86.6153 125.089C86.6153 118.236 81.0239 112.66 74.1514 112.66V134H86.6153V125.089Z" fill="#6E76E4"/>
<path d="M74.1514 97.7523C69.4754 97.7523 65.6713 101.546 65.6713 106.21C65.6713 110.874 69.4756 114.668 74.1514 114.668L78.5362 106.21L74.1514 97.7523Z" fill="#FFCCBD"/>
<path d="M82.6314 106.21C82.6314 101.546 78.8274 97.7523 74.1514 97.7523V114.668C78.8274 114.668 82.6314 110.874 82.6314 106.21Z" fill="#FFBDA9"/>
<path d="M96.3847 125.089V134H108.849L116.322 127.481L108.849 112.66C101.976 112.66 96.3847 118.236 96.3847 125.089Z" fill="#989EEC"/>
<path d="M121.313 125.089C121.313 118.236 115.721 112.66 108.849 112.66V134H121.313V125.089Z" fill="#6E76E4"/>
<path d="M108.849 97.7523C104.173 97.7523 100.369 101.546 100.369 106.21C100.369 110.874 104.173 114.668 108.849 114.668L113.233 106.21L108.849 97.7523Z" fill="#FFCCBD"/>
<path d="M117.329 106.21C117.329 101.546 113.525 97.7523 108.849 97.7523V114.668C113.525 114.668 117.329 110.874 117.329 106.21Z" fill="#FFBDA9"/>
</svg>
