<svg width="183" height="183" viewBox="0 0 183 183" fill="none" xmlns="http://www.w3.org/2000/svg">
<circle cx="91.5" cy="91.5" r="91.5" fill="white"/>
<path d="M110.821 114.456L112.846 113.911L118.763 135.995C119.055 137.085 118.026 138.067 116.951 137.725L108.625 135.078L102.739 141.533C101.979 142.367 100.597 142.031 100.305 140.941L94.7387 120.174L110.821 114.456Z" fill="#F07281"/>
<path d="M73.4486 114.488L89.4676 120.198L83.9096 140.941C83.6174 142.031 82.2358 142.367 81.4754 141.533L75.5891 135.079L67.2633 137.725C66.1877 138.067 65.1594 137.085 65.4516 135.994L71.3645 113.932C71.3645 113.932 73.4486 114.488 73.4486 114.488Z" fill="#F07281"/>
<path d="M120.811 111.77L111.19 114.357C110.948 114.422 110.728 114.55 110.55 114.727L103.512 121.777C103.152 122.138 102.626 122.28 102.133 122.148L92.5084 119.578C92.2662 119.513 92.0113 119.513 91.7694 119.578L82.149 122.165C81.6565 122.297 81.1305 122.157 80.7695 121.797L73.7193 114.758C73.542 114.581 73.3211 114.454 73.0789 114.389L63.4541 111.819C62.9613 111.688 62.576 111.303 62.4435 110.81L59.857 101.19C59.792 100.948 59.6642 100.728 59.4869 100.55L52.4367 93.5121C52.0757 93.1518 51.9343 92.6262 52.066 92.1332L54.6361 82.5084C54.7007 82.2662 54.7006 82.0113 54.6355 81.7693L52.049 72.149C51.9166 71.6564 52.057 71.1305 52.4173 70.7695L59.4556 63.7193C59.6328 63.542 59.7599 63.3211 59.8246 63.0789L62.3947 53.4541C62.5263 52.9613 62.9109 52.576 63.4035 52.4435L73.0238 49.857C73.2658 49.792 73.4865 49.6642 73.6637 49.4869L80.702 42.4367C81.0623 42.0757 81.5879 41.9343 82.0809 42.066L91.7057 44.6361C91.9479 44.7007 92.2028 44.7006 92.4447 44.6355L102.065 42.049C102.558 41.9166 103.084 42.057 103.445 42.4173L110.495 49.4556C110.672 49.6328 110.893 49.7599 111.135 49.8246L120.76 52.3947C121.253 52.5263 121.638 52.9109 121.771 53.4035L124.357 63.0238C124.422 63.2658 124.55 63.4865 124.727 63.6637L131.777 70.702C132.138 71.0623 132.28 71.5879 132.148 72.0809L129.578 81.7057C129.513 81.9479 129.514 82.2027 129.579 82.4447L132.165 92.0651C132.298 92.5576 132.157 93.0836 131.797 93.4446L124.758 100.495C124.581 100.672 124.454 100.893 124.39 101.135L121.819 110.76C121.688 111.253 121.303 111.638 120.811 111.77Z" fill="#FFC344"/>
<path d="M92.1071 112.704C109.005 112.704 122.704 99.0051 122.704 82.107C122.704 65.2089 109.005 51.5103 92.1071 51.5103C75.209 51.5103 61.5103 65.2089 61.5103 82.107C61.5103 99.0051 75.209 112.704 92.1071 112.704Z" fill="#FEE97D"/>
<path d="M99.2463 111.866C96.9557 112.414 94.5651 112.704 92.1071 112.704C75.2094 112.704 61.5103 99.0047 61.5103 82.1072C61.5103 65.2097 75.2094 51.5105 92.1071 51.5105C94.5651 51.5105 96.9557 51.8001 99.2463 52.3488C85.792 55.5634 75.7889 67.6676 75.7889 82.1072C75.7889 96.5469 85.7918 108.651 99.2463 111.866Z" fill="#FEE45A"/>
<path d="M104.42 94.0405H105.989C107.722 94.0405 109.127 95.4453 109.127 97.1785C109.127 98.9117 107.722 100.317 105.989 100.317H89.1578C88.3102 100.317 87.4901 100.03 86.8174 99.5137C85.0434 98.1533 83.166 97.8653 80.8842 97.7297V77.7748C86.2504 71.6435 93.0508 71.0674 92.5748 61.9053C92.4924 60.3199 93.7559 58.9886 95.3434 58.9886C96.5577 58.9886 97.6373 59.7767 97.9918 60.9383C99.4321 65.6592 99.7922 70.3443 97.8909 75.2119H109.367C111.1 75.2119 112.505 76.6168 112.505 78.35C112.505 80.0832 111.1 81.4881 109.367 81.4881H105.463H108.304C110.037 81.4881 111.442 82.893 111.442 84.6262C111.442 86.3594 110.037 87.7643 108.304 87.7643H105.463H107.261C108.994 87.7643 110.399 89.1692 110.399 90.9024C110.399 92.6356 108.994 94.0405 107.261 94.0405H104.42Z" fill="#FFF3DE"/>
<path d="M80.8842 75.6188V77.7748L81.9041 78.6049V96.6059L80.8842 97.7298V99.7186C80.8842 100.507 80.2449 101.147 79.4563 101.147H68.1558C63.9947 95.9206 61.5101 89.3036 61.5101 82.1073C61.5101 79.37 61.8691 76.7161 62.5443 74.1909H79.4561C80.2449 74.1909 80.8842 74.8301 80.8842 75.6188Z" fill="#8AC9FE"/>
<path d="M104.42 94.0405H105.989C107.722 94.0405 109.127 95.4453 109.127 97.1785C109.127 98.9117 107.722 100.317 105.989 100.317H89.1578C88.3102 100.317 87.4901 100.03 86.8174 99.5137C85.0434 98.1533 83.166 97.8653 80.8842 97.7297V77.7748C86.2504 71.6435 93.0508 71.0674 92.5748 61.9053C92.4924 60.3199 93.7559 58.9886 95.3434 58.9886C96.5577 58.9886 97.6373 59.7767 97.9918 60.9383C99.4321 65.6592 99.7922 70.3443 97.8909 75.2119H109.367C111.1 75.2119 112.505 76.6168 112.505 78.35C112.505 80.0832 111.1 81.4881 109.367 81.4881H105.463H108.304C110.037 81.4881 111.442 82.893 111.442 84.6262C111.442 86.3594 110.037 87.7643 108.304 87.7643H105.463H107.261C108.994 87.7643 110.399 89.1692 110.399 90.9024C110.399 92.6356 108.994 94.0405 107.261 94.0405H104.42Z" fill="#F1B0A2"/>
<path d="M99.1493 69.6424C97.0606 72.0769 93.8873 73.6699 90.9467 76.5529C90.2102 77.275 89.7897 78.2598 89.7897 79.291V94.3494C89.7897 96.1231 90.9889 97.6924 92.7139 98.1043C94.1182 98.4397 95.3881 99.0666 96.6317 100.316H89.1574C88.3102 100.316 87.4901 100.03 86.8176 99.5141C85.0434 98.1543 83.1658 97.8658 80.8844 97.7301V77.7754C86.2543 71.6396 93.0606 71.0672 92.5733 61.8857C92.4907 60.3082 93.7627 58.9888 95.3428 58.9888C95.9496 58.9888 96.5246 59.1861 96.9903 59.5283C97.4559 59.8705 97.8147 60.3564 97.9914 60.9379C98.8758 63.8359 99.353 66.7201 99.1493 69.6424Z" fill="#EB9C8D"/>
<path d="M112.935 118.112L105.168 125.892C104.808 126.253 104.668 126.778 104.799 127.27L107.285 136.547L102.739 141.533C101.978 142.367 100.597 142.031 100.305 140.941L94.7385 120.174L102.133 122.148C102.626 122.279 103.153 122.138 103.512 121.777L110.551 114.727C110.728 114.55 110.949 114.421 111.191 114.356L112.846 113.911L113.902 117.852L112.935 118.112Z" fill="#EB5569"/>
<path d="M89.4676 120.199L88.2479 124.749L80.6922 126.783C80.349 126.875 79.9828 126.777 79.7313 126.526C79.19 125.986 78.2666 126.233 78.0684 126.972L75.8254 135.34L75.5889 135.079L67.2633 137.725C66.1877 138.067 65.1594 137.085 65.4515 135.995L71.3644 113.932L73.0799 114.389C73.3205 114.455 73.543 114.581 73.7184 114.758L80.7699 121.798C81.1311 122.157 81.6572 122.297 82.1488 122.165L89.4676 120.199Z" fill="#EB5569"/>
</svg>
